<?xml version="1.0" standalone="no"?>
<!DOCTYPE svg PUBLIC "-//W3C//DTD SVG 20010904//EN"
 "http://www.w3.org/TR/2001/REC-SVG-20010904/DTD/svg10.dtd">
<svg version="1.0" xmlns="http://www.w3.org/2000/svg"
 width="144.000000pt" height="144.000000pt" viewBox="0 0 144.000000 144.000000"
 preserveAspectRatio="xMidYMid meet">
<metadata>
Created by potrace 1.14, written by Peter Selinger 2001-2017
</metadata>
<g transform="translate(0.000000,144.000000) scale(0.100000,-0.100000)"
fill="#000000" stroke="none">
<path d="M638 1430 c-2 -5 -9 -10 -17 -12 -39 -8 -107 -82 -124 -133 -12 -36
-14 -104 -5 -145 5 -23 41 -80 50 -80 4 0 8 -7 8 -16 0 -8 5 -12 10 -9 23 14
8 -24 -15 -39 -14 -9 -25 -14 -25 -12 0 3 -12 -6 -26 -19 -15 -14 -32 -25 -39
-25 -22 0 -46 -37 -41 -64 11 -61 14 -64 64 -64 26 0 62 -1 79 -1 l33 -1 -4
-49 c-8 -103 -40 -184 -96 -241 -16 -16 -26 -30 -22 -30 4 0 1 -4 -7 -9 -23
-15 -90 -72 -134 -116 -83 -82 -132 -251 -84 -295 11 -11 29 -20 38 -20 10 0
21 -5 24 -11 4 -6 13 -8 21 -5 7 3 16 1 19 -4 3 -5 13 -9 23 -9 9 1 35 -2 57
-6 50 -9 547 -14 560 -6 6 3 21 7 35 8 22 2 78 11 105 18 34 8 84 37 90 52 12
27 14 43 6 43 -5 0 -9 12 -9 28 -4 79 -50 170 -114 224 -181 154 -230 232
-242 386 l-3 42 56 1 c31 1 66 0 77 0 17 -2 36 17 33 32 0 1 4 13 9 27 14 36
1 51 -90 100 -21 11 -38 25 -38 31 0 6 -4 8 -9 4 -21 -12 -20 16 1 40 34 38
66 105 63 132 -1 12 2 23 7 23 5 0 6 5 2 11 -3 6 -9 28 -11 48 -3 20 -9 38
-14 39 -5 2 -9 10 -9 19 0 19 -60 77 -102 99 -35 19 -184 29 -190 14z"/>
</g>
</svg>
